<?xml version="1.0" encoding="UTF-8"?>
<!-- Created with Inkscape (http://www.inkscape.org/) -->
<svg width="59.071mm" height="64.396mm" version="1.1" viewBox="0 0 59.071 64.396" xmlns="http://www.w3.org/2000/svg">
 <g transform="translate(-3.172 1.9961)">
  <g transform="matrix(.26458 0 0 .26458 -52.74 -15.704)" stroke="#fff" stroke-linecap="round" stroke-linejoin="round" stroke-width="15.118">
   <path d="m221.97 62.246c-2.2932-0.24079 10.898 56.325 39.385 74.678 0 0 0.82187-0.89125 2.3281-2.2793-10.08 9.5169-17.715 24.482-18.785 47.875-0.50599 11.065-8.9001 21.79-7.168 30.949 1.9719 10.428 5.2835 15.227 11.213 20.807 4.5253 4.2588 9.9264 8.0351 15.811 11.215-9.887 15.339 0.56749 38.963 19.334 38.916 28.457 2.7498 19.814-9.9805 19.814-9.9805s10.757-5.8138 2.2012-12.328c2.1817-1.2711 3.4335-3.0356 3.7734-4.9258 9.1961 0.56723 24.923 0.4017 38.447-5.459 16.33-7.4135 23.668-10.17 30.148-25.609 1.7521-8.6907-2.4052-15.287-1.0586-24.768 3.4563-24.335-0.0152-41.683-7.3106-53.988 31.647-12.082 56.264-64.603 53.973-64.844-31.983 4.8771-54.1 30.955-67.193 49.613 1.6331 1.4182 3.1213 2.8549 4.4648 4.25-11.002-10.425-25.659-15.053-39.266-16.814 0 0-29.683-4.2465-51.664 9.9219 2.5658-2.0261 3.1743-2.63 6.9766-4.7363-8.932-20.971-25.152-51.078-55.424-62.492z" color="#000000" fill="#ffd23b" style="-inkscape-stroke:none"/>
   <path d="m222.27 59.428c-0.73473-0.07715-1.6791 0.22767-2.2109 0.67188s-0.74364 0.88352-0.87696 1.207c-0.26663 0.64702-0.26676 1.0125-0.28711 1.3809-0.0407 0.73681 0.021 1.4305 0.13086 2.3008 0.21973 1.7405 0.67782 4.0684 1.375 6.918 1.3944 5.6991 3.752 13.423 7.0918 21.76 6.2923 15.707 15.994 33.536 29.789 43.744-8.3325 10.059-14.278 24.531-15.213 44.98-0.22223 4.8598-2.2796 10.06-4.2461 15.326s-3.9339 10.68-2.875 16.279c2.0501 10.841 5.9183 16.569 12.055 22.344 4.0776 3.8374 8.8786 7.1751 13.986 10.148-8.5304 17.126 2.9644 40.793 23.098 40.752 7.1408 0.66927 12.159 0.43614 15.801-0.48437 3.6945-0.93392 6.1872-2.7412 7.3262-5.0566 1.2151-2.4701 0.87906-4.6877 0.28321-6.3496 0.97194-0.75286 2.079-1.6758 3.0234-2.998 1.0747-1.5046 1.9778-3.5841 1.6621-5.9531-0.19355-1.4525-0.97912-2.8296-2.0312-4.1484 0.6383-0.69689 1.2715-1.3792 1.6777-2.1894 9.59 0.44031 24.307 0.0255 37.625-5.7461a2.8349 2.8349 0 0 0 0.0449-0.0195c8.1401-3.6953 14.225-6.272 19.307-10.117 5.0814-3.8452 8.9186-8.9605 12.283-16.977a2.8349 2.8349 0 0 0 0.16602-0.53711c0.98933-4.9073 0.29524-9.177-0.35938-13.113-0.65461-3.9363-1.2752-7.5688-0.67187-11.816 3.2818-23.106 0.404-40.326-6.2266-53.07 15.596-7.1393 28.773-22.556 38.178-36.602 4.9923-7.4554 8.8973-14.514 11.441-19.793 1.2721-2.6396 2.2018-4.8195 2.7773-6.4746 0.28779-0.82757 0.49246-1.4918 0.60547-2.2207 0.0565-0.36445 0.13065-0.7218 4e-3 -1.4102-0.0634-0.34418-0.17929-0.81865-0.60743-1.3633-0.42813-0.54463-1.2853-1.0381-2.0195-1.1152a2.8349 2.8349 0 0 0-0.72461 0.01563c-32.187 4.9083-54.267 30.121-67.668 48.848-10.317-6.9443-22.324-10.355-33.533-11.807h-2e-3c-0.0992-0.0149-22.312-3.252-43.227 5.1387-9.1824-21.132-25.572-50.721-56.248-62.287a2.8349 2.8349 0 0 0-0.70313-0.16602zm2.9062 7.4766c25.357 11.664 40.082 37.249 48.611 56.719-1.9374 1.196-3.2737 2.1666-5.123 3.627a2.8349 2.8349 0 0 0 3.291 4.6074c20.787-13.399 49.727-9.498 49.727-9.498a2.8349 2.8349 0 0 0 0.0391 4e-3c13.236 1.7134 27.286 6.2116 37.68 16.061a2.8349 2.8349 0 0 0 3.9902-4.0234c-0.0279-0.029-0.0657-0.0588-0.0937-0.0879l2e-3 -2e-3c-7e-3 -7e-3 -0.016-0.0125-0.0234-0.0195-0.79467-0.82199-1.7387-1.6678-2.6328-2.5078 12.387-17.274 32.104-39.244 59.334-45.387-0.45729 1.0944-0.76729 1.9546-1.4688 3.4102-2.4161 5.0136-6.2135 11.886-11.045 19.102-9.6629 14.43-23.596 30.151-38.369 35.791a2.8349 2.8349 0 0 0-1.4258 4.0938c6.9004 11.639 10.334 28.257 6.9414 52.145-0.74329 5.233 0.0421 9.6384 0.6914 13.543 0.63675 3.8288 1.1082 7.1549 0.40821 10.85-3.0638 7.1923-6.1061 11.135-10.326 14.328-4.283 3.241-10.025 5.749-18.193 9.457-12.804 5.5456-28.175 5.7793-37.137 5.2266a2.8349 2.8349 0 0 0-2.9629 2.3281c-0.17975 0.9995-0.80882 2.0444-2.4121 2.9785a2.8349 2.8349 0 0 0-0.28906 4.7051c1.7495 1.332 2.0982 2.2397 2.1719 2.793 0.0737 0.55323-0.10918 1.147-0.6543 1.9102-1.0902 1.5264-3.3496 2.875-3.3496 2.875a2.8349 2.8349 0 0 0-0.99804 4.0859s1.0813 2.131 0.5664 3.1777c-0.25744 0.52336-0.94036 1.3829-3.6289 2.0625-2.6886 0.67963-7.2132 0.99481-14.133 0.32617a2.8349 2.8349 0 0 0-0.28125-0.0117c-16.385 0.0408-25.619-21.087-16.943-34.547a2.8349 2.8349 0 0 0-1.0352-4.0293c-5.6966-3.0784-10.9-6.7247-15.215-10.785-5.7223-5.3853-8.4774-9.255-10.371-19.27-0.67318-3.5599 0.69124-8.088 2.6152-13.24s4.3158-10.847 4.5996-17.053c1.0433-22.815 8.3651-36.93 17.875-45.92 8e-3 -7e-3 0.0156-0.016 0.0234-0.0234a2.8349 2.8349 0 0 0-3.8672-4.1445c-0.0149 0.0138-9e-3 0.01-0.0234 0.0234-0.39494 0.36465-0.32441 0.32042-0.63086 0.61719-12.427-9.0007-22.188-26.248-28.355-41.643-3.2322-8.0683-5.5234-15.587-6.8477-21-0.38522-1.5745-0.50993-2.4859-0.73047-3.6543z" color="#000000" style="-inkscape-stroke:none"/>
  </g>
 </g>
 <g transform="translate(-82.867 -31.494)">
  <g transform="translate(10.134 -17.856)" stroke="#000" stroke-linecap="round">
   <g stroke-linejoin="round">
    <path d="m129.02 57.462c-8.462 1.2904-14.314 8.1903-17.778 13.127 0.43209 0.37524 0.8255 0.75513 1.181 1.1242-2.911-2.7584-6.789-3.9825-10.389-4.4485 0 0-7.8538-1.1237-13.669 2.6251 0.67888-0.53608 0.83977-0.69616 1.8458-1.2534-2.3633-5.5486-6.6543-13.514-14.664-16.534-0.60676-0.06371 2.8833 14.902 10.42 19.758 0 0 0.21764-0.23574 0.61618-0.60299-2.6671 2.518-4.6873 6.4773-4.9704 12.667-0.13388 2.9277-2.3547 5.7654-1.8964 8.1889 0.52174 2.759 1.3979 4.0286 2.9667 5.505 3.5462 3.3373 9.119 5.5606 14.054 5.8513 0 0 6.8061 1.1175 12.24-1.2374 4.3208-1.9615 6.262-2.6913 7.9766-6.7762 0.46357-2.2994-0.63626-4.0446-0.27997-6.553 0.91449-6.4387-4e-3 -11.029-1.9342-14.284 8.3731-3.1968 14.887-17.093 14.28-17.156z" fill="#ffd23b" stroke-width="1.5"/>
    <path d="m75.135 52.045c2.0477 0.21086 4.53 1.7442 5.7482 3.0156-0.70658 0.52523-2.9563 3.6488-2.6129 6.5225 0.2606 2.1812-3.0366-7.4643-3.1353-9.538z" stroke-width=".26458px"/>
    <path d="m129.5 57.365c-2.038-0.28998-4.8171 0.59842-6.3064 1.5379 0.55879 0.68035 1.9874 4.2548 0.96016 6.9605-0.77973 2.0537 4.7496-6.5099 5.3462-8.4983z" stroke-width=".265"/>
   </g>
   <path d="m91.977 110.88c7.5293 0.72755 5.2425-2.6407 5.2425-2.6407s2.8463-1.5384 0.58251-3.262c1.4254-0.83042 1.3521-2.4553-0.15537-3.4173 1.1402-1.2101 1.5405-1.5244 2.2911-3.728-3.4906 0.10536-5.7416 1.1413-7.0288 1.7475 0 0-0.0083-4.0668-0.78494-5.5845-3.1087 1.6263-2.4121 3.3076-4.903 6.086-3.2066 4.0211-0.41925 10.812 4.7559 10.799z" fill="#ffd23b" stroke-linejoin="round" stroke-width="1.5"/>
   <g stroke-width="1.5">
    <ellipse transform="rotate(16.047)" cx="110.53" cy="55.875" rx="2.7458" ry="3.2204"/>
    <ellipse transform="rotate(1.0243)" cx="109.65" cy="84.125" rx="2.7458" ry="3.2204"/>
    <g fill="none">
     <path d="m88.622 77.126c3.072-0.50819 5.559 0.15502 7.5472 2.1443"/>
     <path d="m93.817 91.413c3.5831-0.23045 6.4101 0.65527 8.57 2.8192"/>
     <path d="m103.93 82.446c3.1824-1.2644 6.0617-1.2479 8.7748 0.17749"/>
    </g>
   </g>
  </g>
  <g transform="translate(62.882 -2.1429)"></g>
 </g>
</svg>
